<svg width="16" height="16" viewBox="0 0 16 16" fill="none" xmlns="http://www.w3.org/2000/svg">
  <path d="M7.99999 15.2C7.99999 15.2 13.65 12.37 13.65 8.05V2.95L7.99999 0.83L2.34999 2.95V8.05C2.34999 12.37 7.99999 15.2 7.99999 15.2Z" stroke="white" stroke-width="1.35" stroke-linejoin="round"/>
  <path d="M7.21561 10.3438C6.96561 10.3438 6.72811 10.2438 6.54999 10.0688L4.98436 8.50313C4.61874 8.1375 4.61874 7.54063 4.98436 7.175C5.34999 6.80938 5.94686 6.80938 6.31249 7.175L7.21249 8.075L9.68124 5.60625C10.0469 5.24062 10.6437 5.24062 11.0094 5.60625C11.375 5.97187 11.375 6.56875 11.0094 6.93438L7.88124 10.0688C7.70624 10.2469 7.46561 10.3438 7.21561 10.3438Z" fill="white"/>
</svg>
