<svg width="16" height="16" viewBox="0 0 16 16" fill="none" xmlns="http://www.w3.org/2000/svg">
  <path d="M7.99999 15.8252C7.99999 15.8252 14.2625 12.6939 14.2625 7.99707V2.51582L7.99999 0.168945L1.73749 2.51582V7.99707C1.73749 12.6939 7.99999 15.8252 7.99999 15.8252Z" fill="url(#paint0_linear_812_14)"/>
  <path opacity="0.2" d="M8 16L7.93125 15.9656C7.91563 15.9562 6.32812 15.1594 4.76562 13.7906C3.84375 12.9844 3.10937 12.1406 2.58125 11.2844C1.91562 10.2031 1.57812 9.09687 1.57812 7.99687V2.40625L8 0L14.4187 2.40625V7.99375C14.4187 9.09375 14.0812 10.2 13.4156 11.2812C12.8875 12.1375 12.1531 12.9813 11.2312 13.7875C9.66875 15.1563 8.08125 15.9562 8.06563 15.9625L8 16ZM1.89375 2.625V7.99687C1.89375 10.3625 3.56562 12.3219 4.96562 13.55C6.3125 14.7313 7.67812 15.4812 8 15.65C8.31875 15.4812 9.68438 14.7313 11.0344 13.55C12.4375 12.3219 14.1062 10.3625 14.1062 7.99687V2.625L8 0.334375L1.89375 2.625Z" fill="white"/>
  <path d="M7.21561 10.3438C6.96561 10.3438 6.72811 10.2438 6.54999 10.0688L4.98436 8.50313C4.61874 8.1375 4.61874 7.54063 4.98436 7.175C5.34999 6.80938 5.94686 6.80938 6.31249 7.175L7.21249 8.075L9.68124 5.60625C10.0469 5.24062 10.6437 5.24062 11.0094 5.60625C11.375 5.97187 11.375 6.56875 11.0094 6.93438L7.88124 10.0688C7.70624 10.2469 7.46561 10.3438 7.21561 10.3438Z" fill="white"/>
  <defs>
    <linearGradient id="paint0_linear_812_14" x1="0.581039" y1="-0.868058" x2="16.708" y2="15.2589" gradientUnits="userSpaceOnUse">
      <stop stop-color="#81E463"/>
      <stop offset="1" stop-color="#21ACB6"/>
    </linearGradient>
  </defs>
</svg>
